<svg id="visual" viewBox="0 0 900 600" width="900" height="600" xmlns="http://www.w3.org/2000/svg" xmlns:xlink="http://www.w3.org/1999/xlink" version="1.1"><rect x="0" y="0" width="900" height="600" fill="#B1C4CC"></rect><path d="M0 485L16.7 478.3C33.3 471.7 66.7 458.3 100 460.8C133.3 463.3 166.7 481.7 200 493.8C233.3 506 266.7 512 300 496.2C333.3 480.3 366.7 442.7 400 436C433.3 429.3 466.7 453.7 500 456.5C533.3 459.3 566.7 440.7 600 425.8C633.3 411 666.7 400 700 405C733.3 410 766.7 431 800 428.5C833.3 426 866.7 400 883.3 387L900 374L900 601L883.3 601C866.7 601 833.3 601 800 601C766.7 601 733.3 601 700 601C666.7 601 633.3 601 600 601C566.7 601 533.3 601 500 601C466.7 601 433.3 601 400 601C366.7 601 333.3 601 300 601C266.7 601 233.3 601 200 601C166.7 601 133.3 601 100 601C66.7 601 33.3 601 16.7 601L0 601Z" fill="#84A2AE" stroke-linecap="round" stroke-linejoin="miter"></path></svg>